<svg width="1024" height="1024" viewBox="0 0 1024 1024" fill="none" xmlns="http://www.w3.org/2000/svg">
<rect width="1024" height="1024" fill="black"/>
<path d="M420.385 823.588V737.28C420.385 721.392 433.265 708.511 449.154 708.511C465.043 708.511 477.923 721.392 477.923 737.28V823.588C477.923 839.477 465.043 852.357 449.154 852.357C433.265 852.357 420.385 839.477 420.385 823.588Z" fill="#FFBB00"/>
<path d="M219 535.896V456.507C219 440.618 231.88 427.738 247.769 427.738C263.658 427.738 276.538 440.618 276.538 456.507V535.896L276.763 544.465C278.882 587.125 296.763 627.594 327.109 657.94C359.481 690.312 403.373 708.511 449.154 708.511L457.723 708.286C500.383 706.168 540.852 688.286 571.198 657.94C601.544 627.594 619.426 587.125 621.544 544.465H621.769C621.769 528.576 634.65 515.696 650.538 515.696C666.427 515.696 679.308 528.576 679.308 544.465C679.308 605.505 655.07 655.488 611.908 698.65C571.442 739.116 517.448 762.948 460.56 765.769L449.154 766.05C388.113 766.05 329.562 741.812 286.4 698.65C245.934 658.184 222.102 604.19 219.281 547.302L219 535.896Z" fill="#FFBB00"/>
<path d="M506.694 334.511C506.694 302.734 480.933 276.973 449.155 276.973C417.377 276.973 391.617 302.734 391.617 334.511V535.896C391.617 567.673 417.377 593.434 449.155 593.434C480.933 593.434 506.694 567.673 506.694 535.896V334.511ZM564.232 535.896C564.232 599.451 512.71 650.973 449.155 650.973C385.6 650.973 334.078 599.451 334.078 535.896V334.511C334.078 270.956 385.6 219.434 449.155 219.434C512.71 219.434 564.232 270.956 564.232 334.511V535.896Z" fill="#FFBB00"/>
<path d="M794.385 286.077C794.385 254.299 768.624 228.538 736.846 228.538C705.069 228.538 679.308 254.299 679.308 286.077C679.308 317.855 705.069 343.615 736.846 343.615C768.624 343.615 794.385 317.855 794.385 286.077ZM851.923 286.077C851.923 349.632 800.402 401.154 736.846 401.154C673.291 401.154 621.77 349.632 621.77 286.077C621.77 222.522 673.291 171 736.846 171C800.402 171 851.923 222.522 851.923 286.077Z" fill="#DDDDDD"/>
<path d="M621.77 284.62V451.409C621.77 467.298 634.65 480.178 650.539 480.178C666.428 480.178 679.308 467.298 679.308 451.409V284.62H621.77Z" fill="#DDDDDD"/>
</svg>
