<svg width="633" height="682" viewBox="0 0 633 682" fill="none" xmlns="http://www.w3.org/2000/svg">
<path d="M201.385 652.588V566.28C201.385 550.392 214.265 537.511 230.154 537.511C246.043 537.511 258.923 550.392 258.923 566.28V652.588C258.923 668.477 246.043 681.357 230.154 681.357C214.265 681.357 201.385 668.477 201.385 652.588Z" fill="#FFBB00"/>
<path d="M0 364.896V285.507C0 269.618 12.8804 256.738 28.7692 256.738C44.658 256.738 57.5385 269.618 57.5385 285.507V364.896L57.7632 373.465C59.8821 416.125 77.7633 456.594 108.109 486.94C140.481 519.312 184.373 537.511 230.154 537.511L238.723 537.286C281.383 535.168 321.852 517.286 352.198 486.94C382.544 456.594 400.426 416.125 402.544 373.465H402.769C402.769 357.576 415.65 344.696 431.538 344.696C447.427 344.696 460.308 357.576 460.308 373.465C460.308 434.505 436.07 484.488 392.908 527.65C352.442 568.116 298.448 591.948 241.56 594.769L230.154 595.05C169.113 595.05 110.562 570.812 67.3998 527.65C26.9337 487.184 3.10159 433.19 0.28095 376.302L0 364.896Z" fill="#FFBB00"/>
<path d="M287.694 163.511C287.694 131.734 261.933 105.973 230.155 105.973C198.377 105.973 172.617 131.734 172.617 163.511V364.896C172.617 396.673 198.377 422.434 230.155 422.434C261.933 422.434 287.694 396.673 287.694 364.896V163.511ZM345.232 364.896C345.232 428.451 293.71 479.973 230.155 479.973C166.6 479.973 115.078 428.451 115.078 364.896V163.511C115.078 99.956 166.6 48.4343 230.155 48.4343C293.71 48.4343 345.232 99.956 345.232 163.511V364.896Z" fill="#FFBB00"/>
<path d="M575.385 115.077C575.385 83.2993 549.624 57.5385 517.846 57.5385C486.069 57.5385 460.308 83.2993 460.308 115.077C460.308 146.855 486.069 172.615 517.846 172.615C549.624 172.615 575.385 146.855 575.385 115.077ZM632.923 115.077C632.923 178.632 581.402 230.154 517.846 230.154C454.291 230.154 402.77 178.632 402.77 115.077C402.77 51.5216 454.291 0 517.846 0C581.402 0 632.923 51.5216 632.923 115.077Z" fill="#DDDDDD"/>
<path d="M402.77 113.62V280.409C402.77 296.298 415.65 309.178 431.539 309.178C447.428 309.178 460.308 296.298 460.308 280.409V113.62H402.77Z" fill="#DDDDDD"/>
</svg>
