<svg width="534" height="180" viewBox="0 0 534 180" fill="none" xmlns="http://www.w3.org/2000/svg">
<rect x="0.5" y="0.5" width="533" height="179" rx="36.5" fill="#EEEEEE"/>
<rect x="0.5" y="0.5" width="533" height="179" rx="36.5" stroke="#EEEEEE"/>
<g clip-path="url(#clip0_461_337)">
<path fill-rule="evenodd" clip-rule="evenodd" d="M60 129.713C60 135.076 63.4385 138.5 68.8256 138.5H94.5C109.859 138.5 122.352 133.365 130.834 124.349H60V129.713ZM94.5 41.5H68.8256C63.4385 41.5 60 44.9235 60 50.2871V55.7647H130.834C122.238 46.6353 109.744 41.5 94.5 41.5ZM116.85 103.808C116.85 108.145 119.601 110.884 123.957 110.884H139.316C141.035 106.547 142.181 101.868 142.754 96.7329H123.957C119.601 96.7329 116.85 99.5859 116.85 103.808ZM95.5316 76.1918C95.5316 80.5282 98.2824 83.2671 102.638 83.2671H142.754C142.181 78.1318 141.035 73.4529 139.316 69.1165H102.638C98.2824 69.1165 95.5316 71.9694 95.5316 76.1918ZM102.638 103.808C102.638 99.4718 99.887 96.7329 95.5316 96.7329H60V110.884H95.5316C99.887 110.884 102.638 108.145 102.638 103.808ZM81.3189 76.1918C81.3189 71.8553 78.5681 69.1165 74.2126 69.1165H60V83.2671H74.2126C78.5681 83.2671 81.3189 80.5282 81.3189 76.1918Z" fill="#0062FF"/>
<path fill-rule="evenodd" clip-rule="evenodd" d="M240.638 88.5171C241.784 82.9253 245.451 80.1865 250.38 80.1865C255.194 80.1865 258.747 83.1535 259.779 88.5171H240.638ZM250.495 70.6006C238.116 70.6006 230.437 80.4147 230.437 92.5112C230.437 104.95 238.689 114.308 250.839 114.308C259.206 114.308 264.363 110.428 267.573 105.521L259.664 100.499C257.716 103.238 254.506 104.608 251.182 104.608C245.681 104.608 241.898 101.983 240.638 96.8476H261.383H268.948C269.292 95.4782 269.407 94.1088 269.407 92.5112C269.521 82.0124 262.988 70.6006 250.495 70.6006Z" fill="#0062FF"/>
<path fill-rule="evenodd" clip-rule="evenodd" d="M198.802 104.493C191.237 104.493 186.653 99.0157 186.653 92.3968C186.653 85.6639 191.352 80.3004 198.802 80.3004C206.252 80.3004 210.952 85.778 210.952 92.3968C211.066 99.1298 206.482 104.493 198.802 104.493ZM210.149 76.991C207.169 73.3392 202.814 71.171 197.427 71.171C185.507 71.171 176.91 80.7568 176.91 92.7392C176.91 104.607 185.392 114.307 197.427 114.307C202.814 114.307 207.055 112.025 210.149 108.487V113.28H220.694V56.1074H210.149V76.991Z" fill="#0062FF"/>
<path fill-rule="evenodd" clip-rule="evenodd" d="M301.844 91.7122C304.709 93.6522 306.543 96.7333 306.543 100.613C306.543 108.602 301.156 114.079 291.07 114.079C281.557 114.079 276.513 109.172 274.45 104.379L283.161 99.358C283.161 99.358 284.307 104.607 290.955 104.607C295.081 104.607 296.228 102.782 296.228 101.184C296.228 100.499 295.998 99.1298 293.133 97.9886C287.287 95.7063 276.055 94.6792 276.055 84.1804C276.055 75.6216 282.817 71.0569 291.07 71.0569C298.864 71.0569 303.792 75.8498 305.741 79.6157L297.259 84.6369C297.259 84.6369 295.655 80.5286 291.184 80.5286C286.714 80.5286 286.37 83.0392 286.37 83.838C286.37 86.0063 288.548 86.8051 293.248 88.2886C295.998 88.9733 298.864 89.7722 301.844 91.7122ZM474 82.3545H465.174V99.2439C465.174 104.493 470.332 103.352 474 103.352V112.938C474 112.938 472.052 113.28 468.728 113.28C461.163 113.28 455.088 110.998 455.088 99.2439V82.3545H448.326V72.3122H455.088V60.9004H465.174V72.3122H474V82.3545ZM331.645 103.923C335.885 103.923 339.095 101.869 340.699 98.4451L349.41 103.695C345.972 109.971 339.553 114.307 331.645 114.307C319.495 114.307 311.128 104.722 311.128 92.8533C311.128 80.9851 319.61 71.3992 331.645 71.3992C339.553 71.3992 345.857 75.7357 349.296 81.898L340.585 87.2616C338.98 83.838 335.771 81.7839 331.645 81.7839C325.57 81.7839 321.214 86.8051 321.214 92.9674C321.1 98.9016 325.455 103.923 331.645 103.923Z" fill="#0062FF"/>
<path fill-rule="evenodd" clip-rule="evenodd" d="M424.485 103.809C417.951 103.809 413.94 98.6733 413.94 92.3968C413.94 86.1204 417.951 80.9851 424.485 80.9851C431.018 80.9851 435.03 86.1204 435.03 92.3968C435.03 98.6733 431.018 103.809 424.485 103.809ZM425.746 71.0568C436.863 71.0568 444.887 80.6427 444.887 92.3968C444.887 104.151 436.978 113.737 425.746 113.737C420.817 113.737 416.805 111.569 413.94 107.917V128.8H404.083V72.198H413.94V76.8768C416.805 73.2251 420.817 71.0568 425.746 71.0568ZM385.285 112.71V72.198H395.143V112.71H385.285ZM366.947 79.1592C368.895 74.2521 372.677 71.3992 378.523 71.3992V83.0392C371.76 82.3545 366.832 86.0062 366.947 94.451V112.71H357.089V72.198H366.947V79.1592ZM385.285 66.8345V56.1074H395.372V66.9486H385.285V66.8345Z" fill="#0062FF"/>
</g>
<defs>
<clipPath id="clip0_461_337">
<rect width="414" height="97" fill="white" transform="translate(60 41.5)"/>
</clipPath>
</defs>
</svg>
