<svg width="528" height="180" viewBox="0 0 528 180" fill="none" xmlns="http://www.w3.org/2000/svg">
<rect x="0.5" y="0.5" width="527" height="179" rx="36.5" fill="#EEEEEE"/>
<rect x="0.5" y="0.5" width="527" height="179" rx="36.5" stroke="#EEEEEE"/>
<path d="M191.267 113.114V67.2104H221.328V75.1315H200.874V87.4425H219.547V95.0454H200.874V113.114H191.267ZM234.975 113.655C232.706 113.655 230.713 113.22 228.995 112.351C227.277 111.46 225.93 110.241 224.955 108.692C224 107.123 223.523 105.342 223.523 103.348V103.285C223.523 100.188 224.679 97.76 226.991 95.9997C229.302 94.2183 232.568 93.1897 236.789 92.914L250.086 92.0869V97.8766L238.188 98.6401C236.407 98.7461 235.05 99.1703 234.117 99.9125C233.183 100.634 232.717 101.599 232.717 102.807V102.871C232.717 104.122 233.194 105.108 234.148 105.829C235.103 106.529 236.386 106.879 237.997 106.879C239.376 106.879 240.606 106.614 241.688 106.084C242.79 105.533 243.649 104.79 244.264 103.857C244.901 102.903 245.219 101.832 245.219 100.644V90.3055C245.219 88.7998 244.742 87.6121 243.787 86.7426C242.833 85.8519 241.444 85.4065 239.62 85.4065C237.881 85.4065 236.502 85.7671 235.484 86.4881C234.466 87.2092 233.841 88.1211 233.608 89.2239L233.544 89.5102H225.05L225.082 89.1285C225.252 87.0289 225.941 85.1627 227.15 83.5297C228.38 81.8967 230.076 80.6242 232.24 79.7123C234.424 78.7792 237.011 78.3126 240.002 78.3126C242.949 78.3126 245.505 78.7898 247.668 79.7441C249.831 80.6773 251.507 82.0027 252.694 83.7205C253.903 85.4384 254.508 87.4425 254.508 89.7329V113.114H245.219V108.024H245.028C244.392 109.191 243.564 110.198 242.547 111.047C241.55 111.874 240.415 112.52 239.143 112.987C237.87 113.432 236.481 113.655 234.975 113.655ZM276.108 113.814C272.651 113.814 269.66 113.093 267.137 111.651C264.613 110.209 262.673 108.162 261.315 105.511C259.958 102.839 259.279 99.6793 259.279 96.0315V95.9997C259.279 92.352 259.958 89.2133 261.315 86.5836C262.694 83.9326 264.634 81.8967 267.137 80.4758C269.66 79.0337 272.619 78.3126 276.012 78.3126C279.108 78.3126 281.791 78.8958 284.06 80.0622C286.33 81.2074 288.1 82.7662 289.373 84.7385C290.667 86.7108 291.377 88.927 291.504 91.3871V91.6098H282.883L282.82 91.3235C282.544 89.6905 281.844 88.3332 280.72 87.2516C279.596 86.1488 278.069 85.5974 276.139 85.5974C274.634 85.5974 273.319 86.0216 272.195 86.8699C271.092 87.697 270.233 88.8952 269.618 90.4646C269.024 92.0127 268.727 93.8684 268.727 96.0315V96.0634C268.727 98.2902 269.024 100.188 269.618 101.758C270.233 103.306 271.092 104.493 272.195 105.32C273.319 106.126 274.644 106.529 276.171 106.529C278.037 106.529 279.533 106.01 280.657 104.971C281.802 103.91 282.533 102.521 282.852 100.803L282.883 100.517H291.536V100.708C291.388 103.189 290.667 105.416 289.373 107.388C288.079 109.361 286.298 110.93 284.029 112.096C281.781 113.242 279.14 113.814 276.108 113.814ZM311.545 113.814C308.067 113.814 305.077 113.104 302.575 111.683C300.072 110.241 298.142 108.194 296.785 105.543C295.449 102.892 294.781 99.7535 294.781 96.127V96.0952C294.781 92.4687 295.449 89.33 296.785 86.679C298.142 84.0068 300.04 81.9497 302.479 80.5076C304.939 79.0443 307.834 78.3126 311.164 78.3126C314.493 78.3126 317.367 79.0231 319.785 80.444C322.223 81.8437 324.1 83.8266 325.415 86.3927C326.751 88.9588 327.419 91.9597 327.419 95.3953V98.2583H299.33V92.4051H323.029L318.608 97.8766V94.3137C318.608 92.3202 318.3 90.6554 317.685 89.3193C317.07 87.9621 316.211 86.9441 315.108 86.2655C314.027 85.5868 312.765 85.2475 311.323 85.2475C309.881 85.2475 308.598 85.5974 307.474 86.2973C306.371 86.9971 305.501 88.0257 304.865 89.383C304.25 90.719 303.942 92.3626 303.942 94.3137V97.9084C303.942 99.7959 304.25 101.408 304.865 102.744C305.501 104.08 306.403 105.108 307.569 105.829C308.735 106.529 310.125 106.879 311.736 106.879C313.009 106.879 314.112 106.678 315.045 106.275C315.978 105.872 316.741 105.363 317.335 104.748C317.929 104.133 318.332 103.507 318.544 102.871L318.608 102.68H327.133L327.038 103.03C326.783 104.281 326.285 105.543 325.542 106.816C324.8 108.088 323.793 109.254 322.52 110.315C321.269 111.375 319.732 112.224 317.908 112.86C316.105 113.496 313.984 113.814 311.545 113.814ZM336.549 113.114V75.1315H323.284V67.2104H359.453V75.1315H346.156V113.114H336.549ZM362.762 113.114V79.0125H372.051V113.114H362.762ZM367.406 74.6225C366.006 74.6225 364.829 74.1453 363.875 73.191C362.921 72.2366 362.444 71.102 362.444 69.7872C362.444 68.4511 362.921 67.3165 363.875 66.3833C364.829 65.429 366.006 64.9518 367.406 64.9518C368.806 64.9518 369.983 65.429 370.937 66.3833C371.892 67.3165 372.369 68.4511 372.369 69.7872C372.369 71.102 371.892 72.2366 370.937 73.191C369.983 74.1453 368.806 74.6225 367.406 74.6225ZM378.286 113.114V79.0125H387.575V84.7385H387.765C388.465 82.7874 389.653 81.2287 391.328 80.0622C393.025 78.8958 395.018 78.3126 397.309 78.3126C398.899 78.3126 400.331 78.5883 401.603 79.1397C402.876 79.6911 403.947 80.4864 404.816 81.5256C405.707 82.5647 406.333 83.8372 406.693 85.3429H406.884C407.393 83.9008 408.157 82.6602 409.175 81.621C410.214 80.5606 411.433 79.7441 412.833 79.1715C414.254 78.5989 415.802 78.3126 417.477 78.3126C419.704 78.3126 421.655 78.7898 423.331 79.7441C425.006 80.6985 426.31 82.0345 427.243 83.7524C428.177 85.4702 428.643 87.4849 428.643 89.7965V113.114H419.354V92.1187C419.354 90.1464 418.877 88.6407 417.923 87.6015C416.968 86.5412 415.59 86.011 413.787 86.011C412.621 86.011 411.592 86.2761 410.701 86.8062C409.832 87.3364 409.153 88.0787 408.666 89.033C408.178 89.9874 407.934 91.1008 407.934 92.3732V113.114H398.995V91.8324C398.995 89.9874 398.507 88.5559 397.532 87.5379C396.556 86.5199 395.209 86.011 393.492 86.011C392.325 86.011 391.297 86.2867 390.406 86.8381C389.515 87.3895 388.815 88.1529 388.306 89.1285C387.818 90.104 387.575 91.2386 387.575 92.5323V113.114H378.286ZM450.052 113.814C446.574 113.814 443.584 113.104 441.081 111.683C438.579 110.241 436.649 108.194 435.292 105.543C433.956 102.892 433.288 99.7535 433.288 96.127V96.0952C433.288 92.4687 433.956 89.33 435.292 86.679C436.649 84.0068 438.547 81.9497 440.986 80.5076C443.446 79.0443 446.341 78.3126 449.67 78.3126C453 78.3126 455.874 79.0231 458.291 80.444C460.73 81.8437 462.607 83.8266 463.922 86.3927C465.258 88.9588 465.926 91.9597 465.926 95.3953V98.2583H437.837V92.4051H461.536L457.114 97.8766V94.3137C457.114 92.3202 456.807 90.6554 456.192 89.3193C455.577 87.9621 454.718 86.9441 453.615 86.2655C452.533 85.5868 451.272 85.2475 449.829 85.2475C448.387 85.2475 447.104 85.5974 445.98 86.2973C444.878 86.9971 444.008 88.0257 443.372 89.383C442.757 90.719 442.449 92.3626 442.449 94.3137V97.9084C442.449 99.7959 442.757 101.408 443.372 102.744C444.008 104.08 444.909 105.108 446.076 105.829C447.242 106.529 448.631 106.879 450.243 106.879C451.515 106.879 452.618 106.678 453.551 106.275C454.485 105.872 455.248 105.363 455.842 104.748C456.436 104.133 456.839 103.507 457.051 102.871L457.114 102.68H465.64L465.544 103.03C465.29 104.281 464.791 105.543 464.049 106.816C463.307 108.088 462.3 109.254 461.027 110.315C459.776 111.375 458.238 112.224 456.414 112.86C454.612 113.496 452.491 113.814 450.052 113.814Z" fill="black"/>
<g clip-path="url(#clip0_461_387)">
<path d="M82.5212 40.9346H135.611C148.09 40.9346 158.132 50.9767 158.132 63.4558V116.545C158.132 129.024 148.09 139.066 135.611 139.066H82.5212C70.0421 139.066 60 129.024 60 116.545V63.4558C60 50.9767 70.0421 40.9346 82.5212 40.9346Z" fill="url(#paint0_linear_461_387)"/>
<path d="M74.9648 78.1099V102.005C74.9648 107.222 79.2009 111.442 84.4018 111.442H113.154C118.372 111.442 122.591 107.206 122.591 102.005V78.1099C122.591 72.8926 118.355 68.6729 113.154 68.6729H84.4182C79.2009 68.6565 74.9648 72.8926 74.9648 78.1099ZM137 71.715L126.173 80.645C125.208 81.4464 124.652 82.624 124.652 83.867V96.2316C124.652 97.4746 125.192 98.6358 126.141 99.4372L136.968 108.531C139.437 110.592 143.183 108.841 143.183 105.636V74.6262C143.199 71.4369 139.47 69.6706 137 71.715Z" fill="#EEEEEE"/>
</g>
<defs>
<linearGradient id="paint0_linear_461_387" x1="108.78" y1="42.9838" x2="109.365" y2="139.179" gradientUnits="userSpaceOnUse">
<stop stop-color="#5DF777"/>
<stop offset="1" stop-color="#0ABC28"/>
</linearGradient>
<clipPath id="clip0_461_387">
<rect width="98.1317" height="98.1317" fill="white" transform="translate(60 40.9346)"/>
</clipPath>
</defs>
</svg>
