<svg width="505" height="180" viewBox="0 0 505 180" fill="none" xmlns="http://www.w3.org/2000/svg">
<rect x="0.5" y="0.5" width="504" height="179" rx="36.5" fill="#EEEEEE"/>
<rect x="0.5" y="0.5" width="504" height="179" rx="36.5" stroke="#EEEEEE"/>
<path fill-rule="evenodd" clip-rule="evenodd" d="M238.918 73.4053H232.582L219.095 103.699C218.71 104.478 218.02 106.266 217.031 109.052H216.815C216.508 107.885 215.862 106.144 214.871 103.821L201.672 73.4053H195V117.033H199.873V87.7861C199.873 83.8623 199.789 81.0216 199.632 79.2694H199.753C200.196 81.3619 200.622 82.8576 201.024 83.7467L215.734 117.033H218.207L232.869 83.5035C233.254 82.6456 233.686 81.2343 234.165 79.2694H234.286C233.997 82.5971 233.854 85.4192 233.854 87.7376V117.033H238.918V73.4053ZM263.762 103.093C262.573 101.699 260.521 100.379 257.593 99.126C255.224 98.104 253.658 97.2282 252.89 96.4986C252.133 95.7564 251.762 94.6912 251.762 93.3111C251.762 92.034 252.248 90.9867 253.225 90.1721C254.215 89.3627 255.53 88.9561 257.162 88.9561C259.802 88.9561 262.117 89.7036 264.121 91.1934V86.1573C262.153 85.1845 259.958 84.6974 257.545 84.6974C254.408 84.6974 251.816 85.5679 249.77 87.3009C247.736 89.0219 246.722 91.1695 246.722 93.749C246.722 95.975 247.28 97.7638 248.402 99.1267C249.518 100.477 251.438 101.73 254.162 102.898C256.849 104.163 258.578 105.173 259.346 105.914C260.114 106.645 260.497 107.594 260.497 108.762C260.497 111.669 258.542 113.117 254.641 113.117C251.726 113.117 249.062 112.132 246.65 110.148V115.502C248.823 116.749 251.366 117.375 254.282 117.375C257.672 117.375 260.389 116.542 262.441 114.87C264.505 113.184 265.537 110.988 265.537 108.275C265.537 106.201 264.944 104.474 263.762 103.093ZM311.186 73H281.308V77.6235H293.739V116.627H298.779V77.6235H311.186V73ZM313.647 97.7992C314.066 95.0243 315.095 92.7923 316.736 91.1145C318.39 89.4254 320.373 88.5741 322.696 88.5741C325.141 88.5741 327.039 89.3888 328.388 91.0161C329.732 92.6321 330.431 94.8887 330.481 97.7992H313.647ZM335.588 99.4271C335.588 94.6422 334.451 90.9178 332.183 88.2545C329.927 85.59 326.783 84.2583 322.745 84.2583C320.07 84.2583 317.636 84.9733 315.447 86.4039C313.257 87.8226 311.537 89.8207 310.29 92.3976C309.036 94.9811 308.417 97.8357 308.417 100.956C308.417 106.086 309.664 110.106 312.163 113.016C314.657 115.927 318.13 117.383 322.575 117.383C327.062 117.383 330.675 116.365 333.4 114.324V109.612C330.492 111.919 327.275 113.066 323.741 113.066C320.592 113.066 318.135 112.129 316.372 110.255C314.602 108.368 313.678 105.642 313.598 102.09H335.588V99.4271ZM359.94 103.792C359.94 106.443 359.126 108.651 357.508 110.427C355.902 112.19 353.865 113.066 351.402 113.066C349.65 113.066 348.215 112.591 347.096 111.636C345.99 110.685 345.441 109.415 345.441 107.837C345.441 105.882 345.952 104.471 346.974 103.595C348.008 102.725 349.82 102.103 352.399 101.72L359.94 100.636L359.94 103.792ZM364.927 96.0722C364.927 88.1987 361.266 84.2577 353.956 84.2577C352.216 84.2577 350.246 84.5912 348.045 85.2444C345.838 85.8863 344.28 86.5641 343.374 87.2678V92.4468C346.391 89.8686 349.772 88.5748 353.518 88.5748C357.799 88.5748 359.94 91.2507 359.94 96.5898L350.598 97.9234C343.751 98.9095 340.333 102.35 340.333 108.233C340.333 111.032 341.233 113.258 343.033 114.918C344.832 116.563 347.229 117.383 350.233 117.383C354.449 117.383 357.64 115.484 359.818 111.685H359.939V116.619H364.926L364.927 96.0722ZM418.576 97.1579C418.576 88.5615 415.146 84.2583 408.286 84.2583C403.713 84.2583 400.265 86.4531 397.948 90.844C397.315 88.7595 396.185 87.1382 394.566 85.9847C392.943 84.8384 391.118 84.2583 389.093 84.2583C384.872 84.2583 381.661 86.182 379.46 90.0294H379.339V85.0232H374.351V116.617H379.339V98.6132C379.339 95.6535 380.044 93.2481 381.455 91.3862C382.877 89.5111 384.69 88.5755 386.88 88.5755C391.598 88.5755 393.958 91.6766 393.958 97.8729V116.618H398.946V98.6132C398.946 95.8688 399.686 93.5073 401.183 91.5344C402.673 89.5609 404.479 88.5748 406.608 88.5748C409.12 88.5748 410.913 89.3523 411.983 90.8925C413.054 92.4222 413.588 94.9558 413.588 98.4889V116.617H418.576V97.1579ZM443.2 102.904C441.996 101.492 439.916 100.153 436.948 98.8843C434.546 97.8477 432.958 96.9606 432.18 96.2197C431.414 95.4688 431.037 94.389 431.037 92.989C431.037 91.6939 431.53 90.6334 432.521 89.8081C433.524 88.9875 434.856 88.5748 436.51 88.5748C439.186 88.5748 441.534 89.333 443.564 90.844V85.7381C441.57 84.7514 439.344 84.2583 436.899 84.2583C433.719 84.2583 431.092 85.1401 429.018 86.8963C426.957 88.6426 425.928 90.8188 425.928 93.4328C425.928 95.6901 426.494 97.5028 427.632 98.8843C428.762 100.253 430.708 101.523 433.47 102.708C436.195 103.989 437.946 105.013 438.724 105.766C439.502 106.505 439.892 107.467 439.892 108.651C439.892 111.599 437.91 113.066 433.956 113.066C431.001 113.066 428.301 112.067 425.855 110.057V115.483C428.057 116.747 430.636 117.382 433.591 117.382C437.027 117.382 439.781 116.538 441.861 114.842C443.954 113.134 445 110.908 445 108.157C445 106.055 444.397 104.304 443.2 102.904Z" fill="#555AAC"/>
<path fill-rule="evenodd" clip-rule="evenodd" d="M103.399 79.9981H93.9547V106.514H87.9367V79.9981H78.5352V74.8535H103.399V79.9981Z" fill="#EEEEEE"/>
<path d="M136.295 77.5645H163.808C166.407 77.5645 168.515 79.6805 168.515 82.2906V107.456C168.515 117.049 160.77 124.826 151.217 124.826H151.135C141.582 124.827 133.837 117.052 133.835 107.458V80.0344C133.835 79.3793 134.095 78.7511 134.556 78.2879C135.017 77.8247 135.643 77.5645 136.295 77.5645Z" fill="#5059C9"/>
<path d="M154.891 72.589C161.047 72.589 166.038 67.5775 166.038 61.3956C166.038 55.2136 161.047 50.2021 154.891 50.2021C148.735 50.2021 143.744 55.2136 143.744 61.3956C143.744 67.5775 148.735 72.589 154.891 72.589Z" fill="#5059C9"/>
<path d="M120.212 72.5895C129.104 72.5895 136.313 65.3507 136.313 56.4212C136.313 47.4917 129.104 40.2529 120.212 40.2529C111.319 40.2529 104.111 47.4917 104.111 56.4212C104.111 65.3507 111.319 72.5895 120.212 72.5895Z" fill="#7B83EB"/>
<path d="M141.681 77.5645H96.2657C93.6975 77.6283 91.6655 79.7686 91.7252 82.3479V111.05C91.3667 126.528 103.561 139.372 118.973 139.75C134.386 139.372 146.58 126.528 146.221 111.05V82.3479C146.281 79.7686 144.249 77.6283 141.681 77.5645Z" fill="#7B83EB"/>
<path opacity="0.1" d="M121.45 77.5645V117.786C121.444 118.688 121.173 119.568 120.671 120.316C120.168 121.064 119.457 121.646 118.626 121.99C118.086 122.22 117.504 122.338 116.917 122.338H93.9046C93.5832 121.517 93.2855 120.696 93.0378 119.851C92.1708 116.997 91.7285 114.029 91.7252 111.045V82.3403C91.6654 79.7655 93.694 77.6283 96.258 77.5645H121.45Z" fill="black"/>
<path opacity="0.2" d="M118.973 77.5645V120.273C118.973 120.863 118.855 121.447 118.626 121.99C118.284 122.824 117.704 123.538 116.96 124.043C116.215 124.547 115.338 124.82 114.44 124.826H95.0694C94.6481 124.005 94.2518 123.184 93.9046 122.338C93.5718 121.525 93.2824 120.695 93.0378 119.851C92.1708 116.997 91.7285 114.029 91.7252 111.045V82.3403C91.6654 79.7655 93.694 77.6283 96.258 77.5645H118.973Z" fill="black"/>
<path opacity="0.2" d="M118.973 77.5645V115.299C118.954 117.805 116.936 119.832 114.44 119.851H93.0382C92.171 116.997 91.7286 114.029 91.7251 111.045V82.3403C91.6658 79.7655 93.694 77.6283 96.258 77.5645H118.973Z" fill="black"/>
<path opacity="0.2" d="M116.496 77.5645V115.299C116.477 117.805 114.459 119.832 111.963 119.851H93.0382C92.171 116.997 91.7286 114.029 91.7251 111.045V82.3403C91.6658 79.7655 93.694 77.6283 96.258 77.5645H116.496Z" fill="black"/>
<path opacity="0.1" d="M121.45 64.7051V72.5403C121.029 72.565 120.633 72.5901 120.212 72.5901C119.791 72.5901 119.394 72.5654 118.973 72.5403C118.137 72.4846 117.308 72.3514 116.496 72.1423C114.023 71.5543 111.724 70.3868 109.787 68.7354C107.849 67.084 106.329 64.9955 105.349 62.6407C105.007 61.8386 104.742 61.0057 104.557 60.1533H116.917C119.417 60.1624 121.441 62.1949 121.45 64.7051Z" fill="black"/>
<path opacity="0.2" d="M118.973 67.1907V72.5392C118.137 72.4835 117.308 72.3503 116.496 72.1412C114.023 71.5532 111.724 70.3857 109.787 68.7343C107.849 67.0829 106.329 64.9944 105.349 62.6396H114.44C116.94 62.6488 118.964 64.6809 118.973 67.1907Z" fill="black"/>
<path opacity="0.2" d="M118.973 67.1907V72.5392C118.137 72.4835 117.308 72.3503 116.496 72.1412C114.023 71.5532 111.724 70.3857 109.787 68.7343C107.849 67.0829 106.329 64.9944 105.349 62.6396H114.44C116.94 62.6488 118.964 64.6809 118.973 67.1907Z" fill="black"/>
<path opacity="0.2" d="M116.496 67.1905V72.1406C114.023 71.5526 111.724 70.385 109.787 68.7335C107.849 67.082 106.329 64.9935 105.349 62.6387H111.963C114.463 62.6482 116.487 64.6806 116.496 67.1905Z" fill="black"/>
<path d="M66.5407 62.6387H111.956C114.463 62.6387 116.496 64.6799 116.496 67.1981V112.803C116.496 115.321 114.463 117.362 111.956 117.362H66.5407C64.0333 117.362 62.0002 115.321 62.0002 112.803V67.1981C62.0002 64.6803 64.033 62.6387 66.5407 62.6387Z" fill="url(#paint0_linear_461_400)"/>
<path d="M101.198 79.9964H92.119V104.821H86.3351V79.996H77.2988V75.1807H101.198V79.9964Z" fill="#EEEEEE"/>
<defs>
<linearGradient id="paint0_linear_461_400" x1="71.4673" y1="59.0762" x2="107.252" y2="120.796" gradientUnits="userSpaceOnUse">
<stop stop-color="#5A62C3"/>
<stop offset="0.5" stop-color="#4D55BD"/>
<stop offset="1" stop-color="#3940AB"/>
</linearGradient>
</defs>
</svg>
