<svg width="360" height="180" viewBox="0 0 360 180" fill="none" xmlns="http://www.w3.org/2000/svg">
<rect x="0.5" y="0.5" width="358.024" height="179" rx="36.5" fill="#EEEEEE"/>
<rect x="0.5" y="0.5" width="358.024" height="179" rx="36.5" stroke="#EEEEEE"/>
<path d="M214.68 89.8619C214.68 97.9262 212.731 104.183 208.695 108.354C204.659 112.525 198.952 114.611 191.297 114.611C183.781 114.611 177.936 112.525 173.899 108.354C169.863 104.183 167.915 97.9262 167.915 89.8619C167.915 81.9367 170.002 75.819 173.899 71.5087C177.797 67.3375 183.642 65.252 191.297 65.252C198.952 65.252 204.798 67.3375 208.695 71.5087C212.592 75.6799 214.68 81.7976 214.68 89.8619ZM181.554 89.8619C181.554 99.1776 184.895 103.766 191.297 103.766C194.498 103.766 197.004 102.654 198.674 100.429C200.344 98.2043 201.04 94.5893 201.04 89.8619C201.04 85.1346 200.205 81.5196 198.535 79.2949C196.865 77.0703 194.498 75.8189 191.297 75.8189C184.895 75.8189 181.554 80.4073 181.554 89.8619ZM222.613 65.9472H239.315C245.857 65.9472 250.728 66.9204 253.929 68.867C257.131 70.8135 258.801 73.8724 258.801 77.9045C258.801 80.5463 258.105 82.91 256.713 84.8565C255.321 86.8031 253.512 88.0544 251.285 88.4715V88.7496C254.208 89.5839 256.435 90.8352 257.687 92.7818C259.079 94.5893 259.775 96.953 259.775 99.8728C259.775 104.183 258.105 107.659 254.904 110.162C251.563 112.664 247.109 113.916 241.542 113.916H222.892V65.8081H222.613V65.9472ZM235.696 84.3004H239.594C241.403 84.3004 242.795 83.8832 243.908 83.188C244.882 82.3538 245.439 81.2415 245.439 79.7121C245.439 77.0703 243.351 75.6799 239.315 75.6799H235.696V84.3004ZM235.696 93.7551V103.905H240.289C244.326 103.905 246.413 102.097 246.413 98.7605C246.413 97.092 245.857 95.9797 244.743 95.1454C243.63 94.3112 242.099 93.7551 240.011 93.7551H235.696ZM298.885 99.3166C298.885 102.236 298.189 104.878 296.658 107.242C295.127 109.606 293.04 111.274 290.117 112.664C287.194 114.055 283.854 114.611 280.096 114.611C276.894 114.611 274.111 114.472 272.023 113.916C269.935 113.36 267.708 112.664 265.342 111.552V100.012C267.848 101.263 270.492 102.236 273.137 102.932C275.781 103.627 278.286 103.905 280.513 103.905C282.462 103.905 283.854 103.627 284.828 102.932C285.802 102.236 286.22 101.402 286.22 100.429C286.22 99.8728 286.08 99.1776 285.663 98.7605C285.245 98.2043 284.689 97.7872 283.993 97.231C283.158 96.6749 281.07 95.7016 277.59 94.1722C274.389 92.7818 272.023 91.3914 270.492 90.001C268.961 88.6106 267.708 87.2202 267.012 85.4127C266.317 83.7442 265.899 81.6586 265.899 79.2949C265.899 74.8457 267.569 71.5087 270.631 68.867C273.972 66.3643 278.286 65.252 283.854 65.252C288.864 65.252 293.875 66.3643 299.024 68.7279L294.988 78.7388C290.534 76.6532 286.637 75.6799 283.297 75.6799C281.627 75.6799 280.374 75.958 279.678 76.6532C278.982 77.2093 278.286 77.9045 278.286 78.8778C278.286 79.8511 278.843 80.6853 279.678 81.3805C280.652 82.0757 283.297 83.4661 287.611 85.4127C291.787 87.2202 294.71 89.3058 296.241 91.3914C298.05 93.477 298.885 96.1187 298.885 99.3166Z" fill="black"/>
<path d="M99.962 50.0381C122.074 50.0381 139.924 67.8876 139.924 89.9997C139.924 112.112 122.074 129.961 99.962 129.961C77.9387 129.961 60.0003 112.201 60.0003 90.0885C59.9115 68.0652 77.8499 50.0381 99.962 50.0381Z" stroke="black" stroke-width="7.94963"/>
<path fill-rule="evenodd" clip-rule="evenodd" d="M99.962 127.474C79.3596 127.474 62.5757 110.779 62.5757 90.0875C62.5757 69.4851 79.2708 52.7012 99.962 52.7012C120.564 52.7012 137.348 69.3963 137.348 90.0875C137.348 110.69 120.564 127.474 99.962 127.474ZM91.5257 84.4041C99.6068 89.0219 109.819 86.269 114.437 78.1878C114.703 78.1878 114.881 78.1878 115.236 78.2766C118.078 78.543 120.831 79.3423 123.317 80.6743C125.715 82.0064 127.846 83.7825 129.622 85.9137C131.931 88.8443 133.441 92.3964 133.974 96.0374C133.796 95.4157 133.619 94.7053 133.352 93.9949C133.086 93.3733 132.819 92.7516 132.464 92.2188C132.287 91.7748 132.02 91.3308 131.754 90.9756C131.665 90.7091 131.487 90.5315 131.31 90.2651C131.221 90.0875 131.132 89.9987 130.955 89.8211L130.155 88.8443C129.889 88.4891 129.622 88.2227 129.267 87.9562C129.09 87.8674 128.912 87.6898 128.823 87.601C128.646 87.5122 128.557 87.3346 128.379 87.2458C128.29 87.157 128.202 87.0682 128.113 86.9794C127.935 86.8018 127.758 86.6242 127.491 86.5354C127.225 86.3578 126.87 86.1802 126.603 85.9137C126.426 85.8249 126.248 85.7361 126.07 85.6473C125.893 85.5585 125.715 85.4697 125.537 85.3809C125.182 85.2033 124.916 85.0257 124.472 84.8481C124.117 84.6705 123.85 84.4929 123.406 84.4041C123.229 84.3153 123.051 84.3153 122.873 84.2265C122.696 84.2265 122.518 84.1377 122.341 84.0489C122.163 84.0489 122.074 83.9601 121.897 83.9601C121.719 83.8713 121.453 83.8713 121.186 83.7825L120.032 83.6048C119.676 83.516 119.232 83.5161 118.877 83.5161C118.522 83.4273 118.078 83.4272 117.634 83.4272C111.595 83.4272 106.001 86.713 103.07 92.13C102.182 93.7285 101.561 95.4157 101.205 97.1918C100.85 99.2343 100.85 101.366 101.205 103.408C101.383 104.385 101.649 105.273 102.005 106.25C102.093 106.516 102.182 106.694 102.271 106.871C102.36 107.049 102.449 107.315 102.537 107.493C102.626 107.582 102.626 107.671 102.715 107.848C102.804 107.937 102.804 108.115 102.893 108.203V108.292V108.381V108.47C102.893 108.47 102.893 108.47 102.893 108.559L102.804 108.647C102.804 108.736 102.715 108.736 102.715 108.736C101.383 110.868 99.6956 112.644 97.7419 114.065C95.0778 116.107 91.9697 117.35 88.5952 117.883C86.7303 118.149 84.8654 118.238 83.0005 117.972C80.958 117.705 79.0044 117.084 77.2283 116.373C77.4059 116.462 77.6723 116.462 77.8499 116.551C78.0275 116.64 78.2939 116.64 78.4715 116.729C79.0932 116.817 79.8036 116.995 80.4252 117.084C83.9774 117.528 87.7071 116.729 90.8153 114.864C92.4137 113.976 93.8346 112.732 94.989 111.312C97.0315 108.825 98.4524 105.895 98.8964 102.698C99.074 101.01 99.074 99.3231 98.8076 97.6358C97.5643 90.0875 91.4369 84.3153 83.7998 83.6048C83.4446 83.516 83.0005 83.5161 82.6453 83.5161H81.9349C81.8461 83.5161 81.8461 83.4272 81.8461 83.4272C81.8461 83.4272 81.8461 83.4272 81.8461 83.3384C81.8461 83.3384 81.8461 83.3384 81.8461 83.2496L81.7573 83.1608C81.7573 83.1608 81.7573 83.072 81.6685 83.072C76.8731 73.126 80.7804 61.2263 90.5488 55.9869C90.3712 56.0757 90.2824 56.1645 90.1048 56.2533C89.6608 56.6085 89.2168 56.8749 88.7728 57.319C88.4176 57.6742 87.9735 58.0294 87.6183 58.3846C87.3519 58.651 87.0855 58.9174 86.8191 59.2726C86.7303 59.3614 86.6415 59.4502 86.5527 59.5391C86.1975 59.8943 85.9311 60.3383 85.7534 60.6935L84.9542 62.0256C84.6878 62.4696 84.5102 62.9136 84.3326 63.3576C84.155 63.8016 83.9774 64.2456 83.7998 64.6897C83.711 64.9561 83.711 65.1337 83.6222 65.4001C83.5334 65.6665 83.5334 65.9329 83.4445 66.1105C83.3557 66.4657 83.2669 66.9986 83.1781 67.3538C83.1781 67.3538 83.1781 67.4426 83.1781 67.5314C83.0893 67.9754 83.0893 68.5082 83.0893 68.9522C82.8229 73.2148 84.4214 77.5662 87.2631 80.7631C88.4176 82.0064 89.572 83.072 91.0817 83.9601C91.1705 83.9601 91.2593 84.0489 91.3481 84.0489C91.4369 84.3153 91.5257 84.3153 91.5257 84.4041ZM90.9929 55.7205C90.9041 55.8093 90.8153 55.8093 90.6376 55.8981C90.7265 55.8093 90.8153 55.8093 90.9929 55.7205Z" fill="black"/>
</svg>
