<svg width="504" height="180" viewBox="0 0 504 180" fill="none" xmlns="http://www.w3.org/2000/svg">
<rect x="0.5" y="0.5" width="502.742" height="179" rx="36.5" fill="#EEEEEE"/>
<rect x="0.5" y="0.5" width="502.742" height="179" rx="36.5" stroke="#EEEEEE"/>
<path d="M60 119.356H77.0126V97.9943H81.0419L93.1298 119.356H111.166L96.9032 94.6046C103.171 92.1742 107.648 87.4414 107.648 78.8712V78.5514C107.648 65.9519 98.9498 59.6201 83.3443 59.6201H60V119.356ZM77.0126 86.8658V72.4755H82.6408C88.1411 72.4755 91.1471 74.3942 91.1471 79.2549V79.5747C91.1471 84.4354 88.333 86.8658 82.5129 86.8658H77.0126ZM136.173 120.379C149.348 120.379 156.959 114.751 158.302 104.902H144.295C143.72 107.844 141.609 110.082 136.685 110.082C131.312 110.082 127.986 106.756 127.603 101H158.366V97.099C158.366 81.3655 148.069 74.5221 136.173 74.5221C122.998 74.5221 112.509 83.3482 112.509 97.4187V98.0583C112.445 112.385 122.486 120.379 136.173 120.379ZM127.731 92.558C128.498 87.3135 131.568 84.3715 136.109 84.3715C140.97 84.3715 143.528 87.3135 143.784 92.558H127.731ZM182.222 120.379C194.31 120.379 202.049 115.71 202.049 105.349C202.049 96.0117 196.229 92.8138 184.077 91.3428C178.704 90.7032 176.722 89.8078 176.722 87.7612C176.722 85.7786 178.385 84.3075 181.646 84.3075C185.1 84.3075 186.635 85.7146 187.275 88.6566H200.833C199.81 78.2316 192.327 74.5221 181.518 74.5221C171.413 74.5221 162.779 79.191 162.779 88.9124C162.779 97.9943 167.704 101.448 179.408 102.919C185.42 103.75 187.53 104.774 187.53 106.82C187.53 108.995 185.867 110.402 182.158 110.402C177.873 110.402 176.466 108.675 175.954 105.477H162.203C162.523 115.199 169.814 120.379 182.222 120.379ZM225.457 120.379C228.975 120.379 231.789 119.612 233.707 119.1V107.716C232.364 108.227 231.149 108.483 229.422 108.483C226.608 108.483 225.009 107.076 225.009 103.878V85.8425H233.643V75.6733H225.009V66.5914H210.043V75.6733H204.799V85.8425H210.043V105.285C210.107 115.646 215.608 120.379 225.457 120.379ZM240.551 119.356H255.517V98.6339C255.517 91.5986 260.505 88.7845 269.651 89.0404V75.0977C262.872 75.0338 258.267 77.8479 255.517 84.3715V75.6733H240.551V119.356ZM297.281 120.379C310.456 120.379 318.067 114.751 319.41 104.902H305.403C304.828 107.844 302.717 110.082 297.792 110.082C292.42 110.082 289.094 106.756 288.71 101H319.474V97.099C319.474 81.3655 309.177 74.5221 297.281 74.5221C284.106 74.5221 273.617 83.3482 273.617 97.4187V98.0583C273.553 112.385 283.594 120.379 297.281 120.379ZM288.838 92.558C289.606 87.3135 292.676 84.3715 297.217 84.3715C302.077 84.3715 304.636 87.3135 304.892 92.558H288.838ZM338.469 120.379C345.504 120.379 349.342 117.437 351.388 114.303V119.42H365.907V91.087C365.907 79.4468 358.232 74.5221 346.208 74.5221C334.248 74.5221 325.997 79.7026 325.358 90.2555H339.364C339.684 87.5054 341.219 85.075 345.312 85.075C350.045 85.075 351.069 87.8252 351.069 91.9824V93.0057H346.911C332.393 93.0057 323.695 97.035 323.695 107.268C323.695 116.542 330.666 120.379 338.469 120.379ZM343.65 110.274C340.132 110.274 338.469 108.675 338.469 106.181C338.469 102.599 341.155 101.448 347.167 101.448H351.069V104.134C351.133 107.844 347.935 110.274 343.65 110.274ZM374.477 119.356H389.443V94.029C389.443 89.2962 392.129 86.6739 396.094 86.6739C399.548 86.6739 401.723 88.8485 401.723 93.2615V119.356H416.497V94.029C416.497 89.2962 419.183 86.6739 423.148 86.6739C426.602 86.6739 428.776 88.8485 428.776 93.2615V119.356H443.742V90.7672C443.742 79.8305 437.73 74.4581 429.48 74.4581C423.98 74.4581 418.799 76.6327 415.026 81.7493C412.915 77.0164 408.95 74.4581 403.194 74.4581C396.414 74.4581 391.809 78.1037 389.507 82.3249V75.6733H374.541V119.356H374.477Z" fill="black"/>
</svg>
