<svg width="693" height="180" viewBox="0 0 693 180" fill="none" xmlns="http://www.w3.org/2000/svg">
<rect x="0.5" y="0.5" width="692" height="179" rx="36.5" fill="#EEEEEE"/>
<rect x="0.5" y="0.5" width="692" height="179" rx="36.5" stroke="#EEEEEE"/>
<path d="M145.142 40H71.5369C65.1532 40 60 45.1538 60 51.5385V125.154C60 131.538 65.1532 136.692 71.5369 136.692H145.142C151.526 136.692 156.679 131.538 156.679 125.154V51.5385C156.679 45.1538 151.526 40 145.142 40ZM133.067 89.1923C132.298 91.4231 130.99 94.7308 129.068 97.8462C127.029 101.192 124.761 103.5 122.376 104.654C121.146 105.269 119.877 105.577 118.608 105.577C118.108 105.577 117.608 105.538 117.146 105.423C115.377 105.077 113.685 104.192 112.147 102.692C109.455 100.077 107.148 95.6538 105.032 89.1154C102.917 82.5385 100.994 79.7692 99.7639 78.5769C99.1486 78 98.764 77.8462 98.5717 77.8077C98.4564 77.8077 98.2641 77.8077 97.8795 77.9615C96.8028 78.4615 95.4568 79.9231 94.1493 82C92.8802 84 91.6496 86.5385 90.6882 89.2308C89.996 91.1538 87.8809 92.1538 85.9196 91.4615C84.9582 91.1154 84.1891 90.4615 83.766 89.5385C83.343 88.6538 83.3046 87.6538 83.6122 86.7308C84.4198 84.5 85.8042 81.1923 87.7655 78.0769C89.8806 74.7308 92.188 72.4615 94.6107 71.3077C96.3413 70.5 98.1103 70.2308 99.8793 70.5385C101.687 70.8462 103.379 71.7692 104.917 73.2308C107.647 75.8462 109.993 80.3077 112.108 86.8462C114.223 93.4231 116.108 96.2308 117.338 97.3846C117.954 98 118.338 98.1154 118.454 98.1154C118.531 98.1154 118.684 98.1538 119.031 97.9615C120.069 97.4615 121.376 96 122.607 93.9615C123.838 91.9615 124.991 89.3846 125.914 86.7308C126.568 84.8077 128.683 83.7692 130.644 84.4231C131.606 84.7308 132.375 85.4231 132.836 86.3077C133.259 87.1923 133.336 88.1923 133.029 89.1154L133.067 89.1923Z" fill="#1D1D1D"/>
<path d="M235.439 89.6138C236.977 87.1522 237.746 84.1522 237.746 80.6522C237.746 77.1522 236.977 74.1907 235.477 71.6522C233.977 69.1137 231.824 67.1522 229.055 65.806C226.286 64.4214 223.017 63.7676 219.21 63.7676H198.251V114.46H210.519V97.1138H216.787L226.055 114.46H239.438L228.94 95.1522C231.747 93.883 233.901 91.9984 235.4 89.5753L235.439 89.6138ZM210.558 73.6522H216.595C218.441 73.6522 219.979 73.9214 221.21 74.4599C222.479 74.9599 223.402 75.7291 224.056 76.7676C224.709 77.806 225.017 79.0753 225.017 80.6522C225.017 82.2292 224.709 83.4984 224.056 84.4984C223.402 85.4984 222.479 86.2292 221.21 86.7292C219.979 87.1907 218.441 87.4599 216.595 87.4599H210.558V73.6522Z" fill="#1D1D1D"/>
<path d="M265.856 63.7676H253.589V114.46H265.856V63.7676Z" fill="#1D1D1D"/>
<path d="M305.89 100.883H305.467L294.123 63.7676H280.394L297.507 114.46H313.812L330.925 63.7676H317.197L305.89 100.883Z" fill="#1D1D1D"/>
<path d="M345.462 114.46H380.842V104.498H357.729V94.0753H379.034V84.1138H357.729V73.7291H380.842V63.7676H345.462V114.46Z" fill="#1D1D1D"/>
<path d="M434.719 89.6138C436.257 87.1522 437.026 84.1522 437.026 80.6522C437.026 77.1522 436.257 74.1907 434.757 71.6522C433.257 69.1137 431.104 67.1522 428.335 65.806C425.566 64.4214 422.297 63.7676 418.49 63.7676H397.531V114.46H409.799V97.1138H416.067L425.335 114.46H438.718L428.22 95.1522C431.027 93.883 433.181 91.9984 434.68 89.5753L434.719 89.6138ZM409.838 73.6522H415.875C417.721 73.6522 419.259 73.9214 420.49 74.4599C421.759 74.9599 422.682 75.7291 423.336 76.7676C423.99 77.806 424.297 79.0753 424.297 80.6522C424.297 82.2292 423.99 83.4984 423.336 84.4984C422.682 85.4984 421.759 86.2292 420.49 86.7292C419.259 87.1907 417.721 87.4599 415.875 87.4599H409.838V73.6522Z" fill="#1D1D1D"/>
<path d="M488.635 89.9236C487.327 88.6543 485.712 87.5774 483.789 86.6928C481.867 85.7697 479.675 85.0774 477.175 84.5005L472.829 83.5005C471.676 83.2697 470.637 82.962 469.714 82.6159C468.791 82.2697 467.984 81.9236 467.33 81.462C466.676 81.0005 466.176 80.5005 465.83 79.9236C465.484 79.3466 465.369 78.6928 465.369 77.9237C465.369 77.0006 465.676 76.1929 466.176 75.4621C466.715 74.7314 467.484 74.1544 468.561 73.7698C469.637 73.3468 470.945 73.1544 472.522 73.1544C474.906 73.1544 476.752 73.6545 478.059 74.6929C479.367 75.6929 480.098 77.116 480.251 78.9236H491.981C491.981 75.7698 491.135 73.0006 489.519 70.616C487.904 68.2314 485.674 66.3852 482.751 65.0391C479.867 63.6929 476.444 63.0391 472.522 63.0391C468.599 63.0391 465.253 63.6929 462.254 65.0006C459.254 66.3083 456.908 68.1544 455.178 70.5391C453.486 72.8852 452.64 75.6544 452.64 78.7697C452.64 82.6159 453.87 85.6543 456.408 87.9236C458.947 90.1543 462.369 91.8082 466.792 92.8082L472.099 94.0389C473.945 94.462 475.483 94.9236 476.636 95.462C477.829 95.962 478.713 96.5389 479.328 97.2313C479.905 97.9236 480.213 98.7313 480.213 99.6928C480.213 100.731 479.867 101.616 479.251 102.424C478.636 103.231 477.713 103.847 476.56 104.27C475.406 104.731 474.021 104.924 472.368 104.924C470.56 104.924 468.984 104.654 467.599 104.077C466.253 103.5 465.176 102.693 464.407 101.616C463.638 100.539 463.177 99.1543 463.1 97.5389H451.371C451.409 101.5 452.332 104.77 454.063 107.385C455.832 109.962 458.254 111.924 461.408 113.193C464.561 114.462 468.253 115.116 472.483 115.116C476.713 115.116 480.328 114.5 483.289 113.27C486.289 112.039 488.596 110.308 490.212 108C491.827 105.693 492.634 102.962 492.634 99.7697C492.634 97.7313 492.288 95.9236 491.596 94.2697C490.904 92.6543 489.942 91.1928 488.596 89.9236H488.635Z" fill="#1D1D1D"/>
<path d="M520.208 63.7676H507.94V114.46H520.208V63.7676Z" fill="#1D1D1D"/>
<path d="M569.047 66.806C565.317 64.7676 560.856 63.7676 555.703 63.7676H536.974V114.46H555.703C560.856 114.46 565.278 113.46 569.047 111.421C572.777 109.383 575.661 106.46 577.7 102.691C579.738 98.883 580.738 94.3445 580.738 89.0753C580.738 83.8061 579.738 79.3061 577.7 75.4983C575.661 71.6907 572.777 68.806 569.047 66.7676V66.806ZM566.932 97.8445C565.932 100.037 564.432 101.614 562.471 102.575C560.51 103.537 558.087 103.998 555.28 103.998H549.28V74.1907H555.126C558.048 74.1907 560.471 74.6907 562.471 75.6522C564.471 76.6137 565.97 78.1907 567.009 80.3445C568.047 82.4984 568.547 85.4215 568.547 89.0753C568.547 92.7292 568.047 95.6522 567.009 97.8445H566.932Z" fill="#1D1D1D"/>
<path d="M597.005 114.46H632.346V104.498H609.272V94.0753H630.539V84.1138H609.272V73.7291H632.346V63.7676H597.005V114.46Z" fill="#1D1D1D"/>
</svg>
