<svg width="512" height="180" viewBox="0 0 512 180" fill="none" xmlns="http://www.w3.org/2000/svg">
<rect x="0.5" y="0.5" width="511" height="179" rx="36.5" fill="#EEEEEE"/>
<rect x="0.5" y="0.5" width="511" height="179" rx="36.5" stroke="#EEEEEE"/>
<g clip-path="url(#clip0_461_355)">
<path d="M185.55 118.347L190.43 107.008C195.704 110.945 202.71 112.992 209.637 112.992C214.753 112.992 217.98 111.024 217.98 108.032C217.902 99.6853 187.36 106.221 187.124 85.2758C187.045 74.6459 196.491 66.4569 209.873 66.4569C217.823 66.4569 225.773 68.4254 231.441 72.9136L226.875 84.4884C221.68 81.1813 215.225 78.8191 209.086 78.8191C204.914 78.8191 202.159 80.7876 202.159 83.3073C202.237 91.4963 233.015 87.0081 233.33 107.008C233.33 117.874 224.12 125.512 210.896 125.512C201.214 125.512 192.319 123.229 185.55 118.347ZM372.812 102.914C370.372 107.166 365.807 110.079 360.533 110.079C352.74 110.079 346.443 103.78 346.443 95.9845C346.443 88.1892 352.74 81.89 360.533 81.89C365.807 81.89 370.372 84.8034 372.812 89.0554L386.273 81.575C381.235 72.5987 371.553 66.4569 360.533 66.4569C344.239 66.4569 331.015 79.6853 331.015 95.9845C331.015 112.284 344.239 125.512 360.533 125.512C371.632 125.512 381.235 119.449 386.273 110.394L372.812 102.914ZM240.099 41.9688H256.944V124.41H240.099V41.9688ZM392.885 41.9688V124.41H409.73V99.6853L429.723 124.41H451.291L425.866 95.0396L449.402 67.638H428.779L409.73 90.3939V41.9688H392.885ZM307.007 103.071C304.567 107.087 299.529 110.079 293.861 110.079C286.069 110.079 279.772 103.78 279.772 95.9845C279.772 88.1892 286.069 81.89 293.861 81.89C299.529 81.89 304.567 85.0396 307.007 89.1341V103.071ZM307.007 67.638V74.331C304.252 69.6853 297.404 66.4569 290.241 66.4569C275.442 66.4569 263.792 79.5278 263.792 95.9058C263.792 112.284 275.442 125.512 290.241 125.512C297.404 125.512 304.252 122.284 307.007 117.638V124.331H323.852V67.638H307.007Z" fill="black"/>
<path d="M81.4101 102.992C81.4101 108.74 76.7659 113.386 71.0198 113.386C65.2736 113.386 60.6294 108.74 60.6294 102.992C60.6294 97.2443 65.2736 92.5986 71.0198 92.5986H81.4101V102.992ZM86.6053 102.992C86.6053 97.2443 91.2495 92.5986 96.9957 92.5986C102.742 92.5986 107.386 97.2443 107.386 102.992V128.977C107.386 134.725 102.742 139.37 96.9957 139.37C91.2495 139.37 86.6053 134.725 86.6053 128.977V102.992Z" fill="#E01E5A"/>
<path d="M96.9958 61.2601C91.2496 61.2601 86.6054 56.6144 86.6054 50.8664C86.6054 45.1183 91.2496 40.4727 96.9958 40.4727C102.742 40.4727 107.386 45.1183 107.386 50.8664V61.2601H96.9958ZM96.9958 66.5357C102.742 66.5357 107.386 71.1813 107.386 76.9294C107.386 82.6774 102.742 87.3231 96.9958 87.3231H70.9411C65.195 87.3231 60.5508 82.6774 60.5508 76.9294C60.5508 71.1813 65.195 66.5357 70.9411 66.5357H96.9958Z" fill="#36C5F0"/>
<path d="M138.636 76.9294C138.636 71.1813 143.28 66.5357 149.026 66.5357C154.773 66.5357 159.417 71.1813 159.417 76.9294C159.417 82.6774 154.773 87.3231 149.026 87.3231H138.636V76.9294ZM133.441 76.9294C133.441 82.6774 128.797 87.3231 123.051 87.3231C117.304 87.3231 112.66 82.6774 112.66 76.9294V50.8664C112.66 45.1183 117.304 40.4727 123.051 40.4727C128.797 40.4727 133.441 45.1183 133.441 50.8664V76.9294Z" fill="#2EB67D"/>
<path d="M123.051 118.583C128.797 118.583 133.441 123.229 133.441 128.977C133.441 134.725 128.797 139.37 123.051 139.37C117.304 139.37 112.66 134.725 112.66 128.977V118.583H123.051ZM123.051 113.386C117.304 113.386 112.66 108.74 112.66 102.992C112.66 97.2443 117.304 92.5986 123.051 92.5986H149.105C154.851 92.5986 159.495 97.2443 159.495 102.992C159.495 108.74 154.851 113.386 149.105 113.386H123.051Z" fill="#ECB22E"/>
</g>
<defs>
<clipPath id="clip0_461_355">
<rect width="392" height="100" fill="white" transform="translate(60 40)"/>
</clipPath>
</defs>
</svg>
