<svg width="476" height="180" viewBox="0 0 476 180" fill="none" xmlns="http://www.w3.org/2000/svg">
<rect x="0.5" y="0.5" width="475" height="179" rx="36.5" fill="#EEEEEE"/>
<rect x="0.5" y="0.5" width="475" height="179" rx="36.5" stroke="#EEEEEE"/>
<g clip-path="url(#clip0_461_321)">
<path fill-rule="evenodd" clip-rule="evenodd" d="M349.85 73.9899C351.211 76.3377 351.656 79.0088 351.803 82.0118L351.996 86.0143V114.003L352.194 118.009C352.588 124.553 357.414 129.391 364.008 129.803L367.994 130V86.0143L368.191 82.0118C368.355 79.0424 368.796 76.3209 370.178 73.9563C371.586 71.531 373.607 69.5188 376.039 68.1217C378.471 66.7247 381.227 65.9919 384.032 65.997C386.836 66.0021 389.59 66.7449 392.016 68.1508C394.443 69.5568 396.457 71.5763 397.856 74.0067C399.217 76.3545 399.641 79.076 399.805 82.0118L400.002 86.0017V114.003L400.2 118.009C400.611 124.586 405.399 129.425 412.014 129.803L416 130V82.0118C416 73.5261 412.63 65.3879 406.631 59.3864C400.632 53.385 392.494 50.0118 384.009 50.0084C379.467 50.0036 374.976 50.9681 370.837 52.8374C366.698 54.7068 363.005 57.4379 360.006 60.8484C357.005 57.4393 353.312 54.7088 349.173 52.8389C345.034 50.969 340.544 50.0026 336.003 50.0042C329.358 50.0042 323.193 52.0202 318.086 55.5019C314.969 52.0244 307.997 50.0042 303.995 50.0042V130L307.997 129.803C314.692 129.362 319.53 124.654 319.791 118.009L320.005 114.003V86.0143L320.202 82.0118C320.37 78.992 320.79 76.3377 322.155 73.9731C323.565 71.5493 325.585 69.5376 328.015 68.1388C330.445 66.74 333.199 66.0031 336.003 66.0017C338.809 66.0023 341.565 66.7407 343.995 68.1427C346.426 69.5448 348.445 71.5613 349.85 73.9899ZM75.9978 129.807L80.0004 130H139.997L139.8 126.01C139.258 119.433 134.6 114.628 128.002 114.2L124 114.003H88.0056L135.995 65.9975L135.797 62.0118C135.487 55.3675 130.631 50.567 124 50.2016L119.997 50.021L60 50.0042L60.1974 54.0067C60.7224 60.5208 65.4474 65.4263 71.991 65.8043L75.9978 66.0017H111.992L64.0026 114.007L64.2 118.009C64.5948 124.603 69.3534 129.378 75.9978 129.803V129.807ZM288.291 61.7136C292.006 65.4276 294.953 69.8371 296.963 74.6902C298.974 79.5433 300.008 84.7449 300.008 89.9979C300.008 95.251 298.974 100.453 296.963 105.306C294.953 110.159 292.006 114.568 288.291 118.282C280.785 125.781 270.61 129.994 260 129.994C249.39 129.994 239.214 125.781 231.708 118.282C216.089 102.663 216.089 77.3331 231.708 61.7136C235.42 58.0008 239.826 55.0553 244.676 53.0455C249.526 51.0357 254.725 50.0008 259.974 50C265.233 49.9964 270.44 51.0294 275.299 53.04C280.158 55.0507 284.573 57.9995 288.291 61.7178V61.7136ZM276.972 73.0407C281.471 77.5431 283.998 83.6477 283.998 90.0126C283.998 96.3776 281.471 102.482 276.972 106.984C272.469 111.483 266.365 114.011 260 114.011C253.635 114.011 247.53 111.483 243.027 106.984C238.528 102.482 236.001 96.3776 236.001 90.0126C236.001 83.6477 238.528 77.5431 243.027 73.0407C247.53 68.5418 253.635 66.0145 260 66.0145C266.365 66.0145 272.469 68.5418 276.972 73.0407ZM176.025 50C181.275 50.0014 186.473 51.0369 191.323 53.0475C196.173 55.058 200.58 58.0042 204.291 61.7178C219.915 77.3331 219.915 102.667 204.291 118.282C196.785 125.781 186.61 129.994 176 129.994C165.39 129.994 155.214 125.781 147.709 118.282C132.089 102.663 132.089 77.3331 147.709 61.7136C151.42 58.0008 155.827 55.0553 160.676 53.0455C165.526 51.0357 170.725 50.0008 175.974 50H176.025ZM192.972 73.0323C197.472 77.5349 200 83.6403 200 90.0063C200 96.3723 197.472 102.478 192.972 106.98C188.469 111.479 182.365 114.006 176 114.006C169.635 114.006 163.53 111.479 159.027 106.98C154.528 102.478 152.001 96.3733 152.001 90.0084C152.001 83.6435 154.528 77.5389 159.027 73.0365C163.53 68.5376 169.635 66.0103 176 66.0103C182.365 66.0103 188.469 68.5376 192.972 73.0365V73.0323Z" fill="#2D8CFF"/>
</g>
<defs>
<clipPath id="clip0_461_321">
<rect width="356" height="80" fill="white" transform="translate(60 50)"/>
</clipPath>
</defs>
</svg>
