<svg width="857" height="180" viewBox="0 0 857 180" fill="none" xmlns="http://www.w3.org/2000/svg">
<rect x="0.5" y="0.5" width="855.45" height="179" rx="36.5" fill="#EEEEEE"/>
<rect x="0.5" y="0.5" width="855.45" height="179" rx="36.5" stroke="#EEEEEE"/>
<mask id="mask0_461_223" style="mask-type:luminance" maskUnits="userSpaceOnUse" x="60" y="18" width="737" height="144">
<path d="M60 18.4424H796.45V161.442H60V18.4424Z" fill="white"/>
</mask>
<g mask="url(#mask0_461_223)">
<path d="M162.864 109.27V105.801V101.01V78.4581V73.6669L166.559 65.9843L185.032 51.3629C187.495 49.2977 191.189 51.0325 191.189 54.2542V124.14C191.189 127.361 187.413 129.096 184.95 127.031L162.864 109.27Z" fill="#00AC47"/>
<path d="M101.742 40.7861L71.9263 70.5778H101.742V40.7861Z" fill="#EA4335"/>
<path d="M101.742 70.5771H71.9263V109.306H101.742V70.5771Z" fill="#2684FC"/>
<path d="M71.9263 109.308V129.169C71.9263 134.631 76.3986 139.099 81.8649 139.099H101.742V109.308H71.9263Z" fill="#0066DA"/>
<path d="M166.591 50.6028C166.591 45.2036 162.214 40.7861 156.864 40.7861H137.409H101.742V70.5778H138.266V89.9424L166.591 89.051V50.6028Z" fill="#FFBA00"/>
<path d="M138.266 109.307H101.742V139.099H137.409H156.864C162.214 139.099 166.591 134.688 166.591 129.296V89.9424H138.266V109.307Z" fill="#00AC47"/>
<path d="M166.591 66.1084V112.285L138.266 89.9417L166.591 66.1084Z" fill="#00832D"/>
<path d="M584.904 125.997H576.126V57.7383H584.904L608.661 99.3036H609.043L632.8 57.7383H641.578V125.997H632.8V85.4803L633.181 74.0403H632.8L611.428 111.506H606.276L584.904 74.0403H584.522L584.904 85.4803V125.997Z" fill="#5F6368"/>
<path d="M674.788 127.522C667.918 127.522 662.258 125.17 657.805 120.467C653.352 115.764 651.126 109.822 651.126 102.64C651.126 95.5215 653.289 89.6109 657.614 84.9078C661.939 80.1411 667.472 77.7578 674.215 77.7578C681.149 77.7578 686.65 80.0141 690.721 84.5265C694.855 88.9754 696.923 95.2355 696.923 103.307L696.828 104.26H660.095C660.221 108.836 661.748 112.523 664.674 115.319C667.601 118.116 671.098 119.514 675.169 119.514C680.767 119.514 685.156 116.717 688.336 111.124L696.16 114.938C694.061 118.878 691.134 121.961 687.382 124.185C683.692 126.41 679.494 127.522 674.788 127.522ZM660.762 97.0151H687.573C687.318 93.7738 685.982 91.1045 683.566 89.0071C681.212 86.8462 678.032 85.7658 674.024 85.7658C670.716 85.7658 667.854 86.7828 665.438 88.8165C663.084 90.8502 661.526 93.5831 660.762 97.0151Z" fill="#5F6368"/>
<path d="M726.406 127.522C719.537 127.522 713.876 125.17 709.423 120.467C704.97 115.764 702.745 109.822 702.745 102.64C702.745 95.5215 704.908 89.6109 709.233 84.9078C713.557 80.1411 719.091 77.7578 725.834 77.7578C732.768 77.7578 738.269 80.0141 742.34 84.5265C746.474 88.9754 748.542 95.2355 748.542 103.307L748.446 104.26H711.713C711.84 108.836 713.366 112.523 716.293 115.319C719.219 118.116 722.717 119.514 726.788 119.514C732.386 119.514 736.775 116.717 739.955 111.124L747.778 114.938C745.679 118.878 742.753 121.961 739.001 124.185C735.311 126.41 731.113 127.522 726.406 127.522ZM712.381 97.0151H739.191C738.937 93.7738 737.601 91.1045 735.184 89.0071C732.83 86.8462 729.65 85.7658 725.643 85.7658C722.335 85.7658 719.473 86.7828 717.056 88.8165C714.702 90.8502 713.144 93.5831 712.381 97.0151Z" fill="#5F6368"/>
<path d="M773.681 126.759C769.865 126.759 766.685 125.584 764.14 123.232C761.659 120.88 760.388 117.607 760.323 113.413V87.2914H752.118V79.2834H760.323V64.9834H769.101V79.2834H780.55V87.2914H769.101V110.553C769.101 113.667 769.705 115.796 770.914 116.94C772.123 118.02 773.49 118.561 775.017 118.561C775.716 118.561 776.384 118.497 777.02 118.37C777.72 118.179 778.356 117.957 778.929 117.703L781.695 125.52C779.406 126.346 776.734 126.759 773.681 126.759Z" fill="#5F6368"/>
<path d="M286.716 97.0742V86.6538H321.623C321.979 88.4902 322.19 90.676 322.19 93.0423C322.19 100.858 320.047 110.533 313.16 117.419C306.456 124.397 297.893 128.118 286.536 128.118C265.496 128.118 247.81 110.998 247.81 89.9711C247.81 68.9441 265.496 51.8242 286.536 51.8242C298.171 51.8242 306.456 56.3841 312.695 62.3386L305.339 69.6895C300.87 65.5022 294.82 62.2464 286.536 62.2464C271.176 62.2464 259.166 74.6202 259.166 89.973C259.166 105.326 271.176 117.7 286.536 117.7C296.497 117.7 302.176 113.699 305.804 110.07C308.763 107.114 310.71 102.873 311.468 97.0761L286.716 97.0742Z" fill="#5F6368"/>
<path d="M375.382 103.557C375.382 117.7 364.304 128.12 350.713 128.12C337.121 128.12 326.043 117.7 326.043 103.557C326.043 89.3223 337.121 78.9941 350.713 78.9941C364.306 78.9941 375.382 89.3204 375.382 103.557ZM364.584 103.557C364.584 94.7177 358.162 88.6711 350.714 88.6711C343.268 88.6711 336.842 94.7177 336.842 103.557C336.842 112.303 343.265 118.443 350.714 118.443C358.162 118.443 364.584 112.303 364.584 103.557Z" fill="#5F6368"/>
<path d="M429.199 103.557C429.199 117.7 418.12 128.12 404.529 128.12C390.937 128.12 379.859 117.7 379.859 103.557C379.859 89.3223 390.937 78.9941 404.529 78.9941C418.122 78.9941 429.199 89.3204 429.199 103.557ZM418.401 103.557C418.401 94.7177 411.978 88.6711 404.53 88.6711C397.084 88.6711 390.659 94.7177 390.659 103.557C390.659 112.303 397.082 118.443 404.53 118.443C411.978 118.443 418.401 112.303 418.401 103.557Z" fill="#5F6368"/>
<path d="M480.783 80.4799V124.581C480.783 142.725 470.077 150.168 457.416 150.168C445.5 150.168 438.334 142.166 435.633 135.654L445.035 131.746C446.711 135.747 450.806 140.491 457.416 140.491C465.516 140.491 470.542 135.466 470.542 126.07V122.534H470.17C467.749 125.511 463.094 128.115 457.23 128.115C444.941 128.115 433.677 117.417 433.677 103.646C433.677 89.7822 444.941 78.9912 457.23 78.9912C463.094 78.9912 467.749 81.5957 470.17 84.4808H470.542V80.4799H480.783ZM471.286 103.648C471.286 94.9951 465.514 88.6681 458.16 88.6681C450.713 88.6681 444.475 94.9951 444.475 103.648C444.475 112.207 450.712 118.442 458.16 118.442C465.516 118.442 471.286 112.207 471.286 103.648Z" fill="#5F6368"/>
<path d="M499.072 54.6729V126.631H488.274V54.6729H499.072Z" fill="#5F6368"/>
<path d="M540.772 111.649L549.151 117.231C546.449 121.232 539.935 128.116 528.67 128.116C514.706 128.116 504.279 117.323 504.279 103.553C504.279 88.9457 514.798 78.9902 527.458 78.9902C540.213 78.9902 546.449 89.1321 548.499 94.6216L549.616 97.4125L516.753 110.996C519.268 115.927 523.178 118.439 528.67 118.439C534.162 118.443 537.98 115.745 540.772 111.649ZM514.985 102.812L536.953 93.6939C535.742 90.6245 532.112 88.4847 527.829 88.4847C522.34 88.4828 514.706 93.3212 514.985 102.812Z" fill="#5F6368"/>
</g>
</svg>
