<svg width="450" height="180" viewBox="0 0 450 180" fill="none" xmlns="http://www.w3.org/2000/svg">
<rect x="0.5" y="0.5" width="449" height="179" rx="36.5" fill="#EEEEEE"/>
<rect x="0.5" y="0.5" width="449" height="179" rx="36.5" stroke="#EEEEEE"/>
<g clip-path="url(#clip0_461_329)">
<path d="M229.96 75.2483C245.121 75.2483 255.911 86.7949 255.911 101.459C255.911 116.358 245.006 127.642 229.96 127.642C214.909 127.642 204.01 116.467 204.01 101.459C204.01 86.6887 214.874 75.2483 229.96 75.2483ZM284.45 75.2483C299.61 75.2483 310.401 86.7949 310.401 101.459C310.401 116.358 299.49 127.642 284.45 127.642C269.399 127.642 258.499 116.467 258.499 101.459C258.499 86.6887 269.364 75.2483 284.45 75.2483ZM372.119 75.2988C381.26 75.2988 390 80.8331 390 94.1121V126.208H377.041V96.8309C377.041 91.4972 374.427 87.4742 368.298 87.4742C362.571 87.4742 359.154 91.9016 359.154 97.2352V126.211H345.897V96.8309C345.897 91.4972 343.185 87.4742 337.154 87.4742C331.327 87.4742 327.91 91.8012 327.91 97.2352V126.211H314.552V76.7068H327.311V82.7457C330.022 77.9169 336.354 75.2988 341.777 75.2988C348.511 75.2988 353.934 78.2179 356.445 83.5486C360.361 77.5096 365.589 75.2988 372.119 75.2988ZM199.767 53.3652V126.208H186.406V53.3652H199.767ZM284.45 87.1964C276.599 87.1964 270.211 93.5954 270.211 101.455C270.211 109.316 276.599 115.715 284.45 115.715C292.302 115.715 298.69 109.316 298.69 101.455C298.687 93.5954 292.299 87.1964 284.45 87.1964ZM229.96 87.3646C222.197 87.3646 215.883 93.6868 215.883 101.462C215.883 109.236 222.197 115.558 229.96 115.558C237.724 115.558 244.035 109.236 244.035 101.462C244.035 93.6868 237.724 87.3646 229.96 87.3646Z" fill="#222222"/>
<path d="M159.478 84.2507H130.389L155.581 69.6917L150.049 60.0973L124.857 74.6562L139.398 49.4413L129.813 43.9002L115.272 69.1151V40H104.206V69.1179L89.6592 43.9002L80.0771 49.4385L94.6214 74.6534L69.429 60.0973L63.8963 69.689L89.0886 84.2479H60V95.3246H89.0859L63.8963 109.883L69.429 119.478L94.6186 104.922L80.0743 130.137L89.6592 135.675L104.203 110.457V139.575H115.269V110.46L129.81 135.675L139.395 130.137L124.851 104.919L150.043 119.478L155.576 109.883L130.387 95.3272H159.472V84.2507H159.478ZM109.739 104.852C101.395 104.852 94.6325 98.0827 94.6325 89.7305C94.6325 81.3785 101.395 74.6088 109.739 74.6088C118.083 74.6088 124.845 81.3785 124.845 89.7305C124.845 98.0827 118.083 104.852 109.739 104.852Z" fill="#625DF5"/>
</g>
<defs>
<clipPath id="clip0_461_329">
<rect width="330" height="100" fill="white" transform="translate(60 40)"/>
</clipPath>
</defs>
</svg>
